<svg xmlns="http://www.w3.org/2000/svg" xmlns:xlink="http://www.w3.org/1999/xlink" width="500" zoomAndPan="magnify" viewBox="0 0 375 374.999991" height="500" preserveAspectRatio="xMidYMid meet" version="1.0"><defs><clipPath id="ce86a7dbb5"><path d="M 16.675781 40.1875 L 203 40.1875 L 203 220.875 L 16.675781 220.875 Z M 16.675781 40.1875 " clip-rule="nonzero"/></clipPath><clipPath id="9fe1aba1f8"><path d="M 109.527344 40.1875 C 58.246094 40.1875 16.675781 80.632812 16.675781 130.53125 C 16.675781 180.425781 58.246094 220.875 109.527344 220.875 C 160.808594 220.875 202.378906 180.425781 202.378906 130.53125 C 202.378906 80.632812 160.808594 40.1875 109.527344 40.1875 Z M 109.527344 40.1875 " clip-rule="nonzero"/></clipPath><clipPath id="22efb052cb"><path d="M 0.675781 0.1875 L 186.398438 0.1875 L 186.398438 180.875 L 0.675781 180.875 Z M 0.675781 0.1875 " clip-rule="nonzero"/></clipPath><clipPath id="ddd54d7a69"><path d="M 93.527344 0.1875 C 42.246094 0.1875 0.675781 40.632812 0.675781 90.53125 C 0.675781 140.425781 42.246094 180.875 93.527344 180.875 C 144.808594 180.875 186.378906 140.425781 186.378906 90.53125 C 186.378906 40.632812 144.808594 0.1875 93.527344 0.1875 Z M 93.527344 0.1875 " clip-rule="nonzero"/></clipPath><clipPath id="bb769d47af"><rect x="0" width="187" y="0" height="181"/></clipPath><clipPath id="90748a1d1d"><path d="M 124.164062 117.445312 L 180.410156 117.445312 L 180.410156 171.984375 L 124.164062 171.984375 Z M 124.164062 117.445312 " clip-rule="nonzero"/></clipPath><clipPath id="d7c1d59911"><path d="M 152.191406 117.445312 C 136.714844 117.445312 124.164062 129.652344 124.164062 144.714844 C 124.164062 159.777344 136.714844 171.984375 152.191406 171.984375 C 167.671875 171.984375 180.21875 159.777344 180.21875 144.714844 C 180.21875 129.652344 167.671875 117.445312 152.191406 117.445312 Z M 152.191406 117.445312 " clip-rule="nonzero"/></clipPath><clipPath id="2791b0da53"><path d="M 0.164062 0.445312 L 56.320312 0.445312 L 56.320312 54.984375 L 0.164062 54.984375 Z M 0.164062 0.445312 " clip-rule="nonzero"/></clipPath><clipPath id="68912b8a96"><path d="M 28.191406 0.445312 C 12.714844 0.445312 0.164062 12.652344 0.164062 27.714844 C 0.164062 42.777344 12.714844 54.984375 28.191406 54.984375 C 43.671875 54.984375 56.21875 42.777344 56.21875 27.714844 C 56.21875 12.652344 43.671875 0.445312 28.191406 0.445312 Z M 28.191406 0.445312 " clip-rule="nonzero"/></clipPath><clipPath id="b8c5f21afb"><rect x="0" width="57" y="0" height="55"/></clipPath><clipPath id="c80c7070f3"><path d="M 34.910156 117.445312 L 91 117.445312 L 91 171.984375 L 34.910156 171.984375 Z M 34.910156 117.445312 " clip-rule="nonzero"/></clipPath><clipPath id="7b01b8cf79"><path d="M 62.9375 117.445312 C 47.457031 117.445312 34.910156 129.652344 34.910156 144.714844 C 34.910156 159.777344 47.457031 171.984375 62.9375 171.984375 C 78.417969 171.984375 90.964844 159.777344 90.964844 144.714844 C 90.964844 129.652344 78.417969 117.445312 62.9375 117.445312 Z M 62.9375 117.445312 " clip-rule="nonzero"/></clipPath><clipPath id="a185139c53"><path d="M 0.910156 0.445312 L 57 0.445312 L 57 54.984375 L 0.910156 54.984375 Z M 0.910156 0.445312 " clip-rule="nonzero"/></clipPath><clipPath id="df00ce44e8"><path d="M 28.9375 0.445312 C 13.457031 0.445312 0.910156 12.652344 0.910156 27.714844 C 0.910156 42.777344 13.457031 54.984375 28.9375 54.984375 C 44.417969 54.984375 56.964844 42.777344 56.964844 27.714844 C 56.964844 12.652344 44.417969 0.445312 28.9375 0.445312 Z M 28.9375 0.445312 " clip-rule="nonzero"/></clipPath><clipPath id="61542c1018"><rect x="0" width="57" y="0" height="55"/></clipPath><clipPath id="a5c7fedc53"><path d="M 0.167969 5.75 L 56.414062 5.75 L 56.414062 60.289062 L 0.167969 60.289062 Z M 0.167969 5.75 " clip-rule="nonzero"/></clipPath><clipPath id="127aadadc9"><path d="M 28.195312 5.75 C 12.714844 5.75 0.167969 17.957031 0.167969 33.019531 C 0.167969 48.082031 12.714844 60.289062 28.195312 60.289062 C 43.675781 60.289062 56.222656 48.082031 56.222656 33.019531 C 56.222656 17.957031 43.675781 5.75 28.195312 5.75 Z M 28.195312 5.75 " clip-rule="nonzero"/></clipPath><clipPath id="6ef94bdb3f"><path d="M 0.167969 0.75 L 56.238281 0.75 L 56.238281 55.289062 L 0.167969 55.289062 Z M 0.167969 0.75 " clip-rule="nonzero"/></clipPath><clipPath id="faa064f2de"><path d="M 28.195312 0.75 C 12.714844 0.75 0.167969 12.957031 0.167969 28.019531 C 0.167969 43.082031 12.714844 55.289062 28.195312 55.289062 C 43.675781 55.289062 56.222656 43.082031 56.222656 28.019531 C 56.222656 12.957031 43.675781 0.75 28.195312 0.75 Z M 28.195312 0.75 " clip-rule="nonzero"/></clipPath><clipPath id="1df90c0df6"><rect x="0" width="57" y="0" height="56"/></clipPath><clipPath id="4fde562819"><path d="M 154.777344 0.125 L 211 0.125 L 211 54.667969 L 154.777344 54.667969 Z M 154.777344 0.125 " clip-rule="nonzero"/></clipPath><clipPath id="05d4e8d645"><path d="M 182.804688 0.125 C 167.324219 0.125 154.777344 12.335938 154.777344 27.398438 C 154.777344 42.457031 167.324219 54.667969 182.804688 54.667969 C 198.285156 54.667969 210.832031 42.457031 210.832031 27.398438 C 210.832031 12.335938 198.285156 0.125 182.804688 0.125 Z M 182.804688 0.125 " clip-rule="nonzero"/></clipPath><clipPath id="ab409972a2"><path d="M 0.777344 0.125 L 57 0.125 L 57 54.667969 L 0.777344 54.667969 Z M 0.777344 0.125 " clip-rule="nonzero"/></clipPath><clipPath id="b267c22e44"><path d="M 28.804688 0.125 C 13.324219 0.125 0.777344 12.335938 0.777344 27.398438 C 0.777344 42.457031 13.324219 54.667969 28.804688 54.667969 C 44.285156 54.667969 56.832031 42.457031 56.832031 27.398438 C 56.832031 12.335938 44.285156 0.125 28.804688 0.125 Z M 28.804688 0.125 " clip-rule="nonzero"/></clipPath><clipPath id="994e5a3403"><rect x="0" width="57" y="0" height="55"/></clipPath><clipPath id="4efaaad8b5"><path d="M 0.078125 0.0390625 L 207 0.0390625 L 207 214 L 0.078125 214 Z M 0.078125 0.0390625 " clip-rule="nonzero"/></clipPath><clipPath id="356d393148"><path d="M 7 0.0390625 L 211.039062 0.0390625 L 211.039062 213 L 7 213 Z M 7 0.0390625 " clip-rule="nonzero"/></clipPath><clipPath id="9eb64bcbd6"><rect x="0" width="212" y="0" height="222"/></clipPath></defs><g transform="matrix(1, 0, 0, 1, 82, 77)"><g clip-path="url(#9eb64bcbd6)"><g clip-path="url(#ce86a7dbb5)"><g clip-path="url(#9fe1aba1f8)"><g transform="matrix(1, 0, 0, 1, 16, 40)"><g clip-path="url(#bb769d47af)"><g clip-path="url(#22efb052cb)"><g clip-path="url(#ddd54d7a69)"><path fill="#10d9a3" d="M 0.675781 0.1875 L 186.304688 0.1875 L 186.304688 180.875 L 0.675781 180.875 Z M 0.675781 0.1875 " fill-opacity="1" fill-rule="nonzero"/></g></g></g></g></g></g><g clip-path="url(#90748a1d1d)"><g clip-path="url(#d7c1d59911)"><g transform="matrix(1, 0, 0, 1, 124, 117)"><g clip-path="url(#b8c5f21afb)"><g clip-path="url(#2791b0da53)"><g clip-path="url(#68912b8a96)"><path fill="#000000" d="M 0.164062 0.445312 L 56.199219 0.445312 L 56.199219 54.984375 L 0.164062 54.984375 Z M 0.164062 0.445312 " fill-opacity="1" fill-rule="nonzero"/></g></g></g></g></g></g><g clip-path="url(#c80c7070f3)"><g clip-path="url(#7b01b8cf79)"><g transform="matrix(1, 0, 0, 1, 34, 117)"><g clip-path="url(#61542c1018)"><g clip-path="url(#a185139c53)"><g clip-path="url(#df00ce44e8)"><path fill="#000000" d="M 0.910156 0.445312 L 56.941406 0.445312 L 56.941406 54.984375 L 0.910156 54.984375 Z M 0.910156 0.445312 " fill-opacity="1" fill-rule="nonzero"/></g></g></g></g></g></g><g clip-path="url(#a5c7fedc53)"><g clip-path="url(#127aadadc9)"><g transform="matrix(1, 0, 0, 1, -0.000000000000014211, 5)"><g clip-path="url(#1df90c0df6)"><g clip-path="url(#6ef94bdb3f)"><g clip-path="url(#faa064f2de)"><path fill="#10d9a3" d="M 0.167969 0.75 L 56.199219 0.75 L 56.199219 55.289062 L 0.167969 55.289062 Z M 0.167969 0.75 " fill-opacity="1" fill-rule="nonzero"/></g></g></g></g></g></g><g clip-path="url(#4fde562819)"><g clip-path="url(#05d4e8d645)"><g transform="matrix(1, 0, 0, 1, 154, 0)"><g clip-path="url(#994e5a3403)"><g clip-path="url(#ab409972a2)"><g clip-path="url(#b267c22e44)"><path fill="#10d9a3" d="M 0.777344 0.125 L 56.808594 0.125 L 56.808594 54.667969 L 0.777344 54.667969 Z M 0.777344 0.125 " fill-opacity="1" fill-rule="nonzero"/></g></g></g></g></g></g><g clip-path="url(#4efaaad8b5)"><path stroke-linecap="butt" transform="matrix(-0.557019, -0.583534, 0.583534, -0.557019, 60.782125, 84.687627)" fill="none" stroke-linejoin="miter" d="M 0.000269986 15.000282 L 74.230977 15.000691 " stroke="#10d9a3" stroke-width="30" stroke-opacity="1" stroke-miterlimit="4"/></g><g clip-path="url(#356d393148)"><path stroke-linecap="butt" transform="matrix(-0.540677, 0.598707, -0.598707, -0.540677, 191.78195, 41.131371)" fill="none" stroke-linejoin="miter" d="M -0.00108661 15.001911 L 71.285339 15.001962 " stroke="#10d9a3" stroke-width="30" stroke-opacity="1" stroke-miterlimit="4"/></g></g></g></svg>